<?xml version="1.0" standalone="no"?>
<!DOCTYPE svg PUBLIC "-//W3C//DTD SVG 20010904//EN"
 "http://www.w3.org/TR/2001/REC-SVG-20010904/DTD/svg10.dtd">
<svg version="1.0" xmlns="http://www.w3.org/2000/svg"
 width="1600.000000pt" height="1600.000000pt" viewBox="0 0 1600.000000 1600.000000"
 preserveAspectRatio="xMidYMid meet">

<g transform="translate(0.000000,1600.000000) scale(0.100000,-0.100000)"
fill="#000000" stroke="none">
<path d="M930 7985 l0 -2855 745 0 745 0 0 1141 0 1140 278 -3 c255 -3 281 -5
329 -25 143 -58 222 -187 253 -413 6 -48 15 -326 20 -635 5 -302 13 -599 20
-660 22 -222 60 -406 102 -502 l19 -43 794 0 795 0 0 38 c0 31 -5 41 -26 53
-33 17 -108 100 -140 155 -14 23 -34 86 -45 140 -20 91 -22 148 -29 744 -5
355 -11 656 -14 670 -3 14 -10 63 -17 110 -26 194 -92 394 -175 527 -65 104
-176 204 -288 258 -110 53 -236 91 -357 106 -49 6 -89 15 -89 19 0 4 30 13 68
20 148 28 321 98 442 180 188 128 334 358 404 640 119 472 64 1052 -132 1395
-202 353 -533 557 -1031 632 -92 15 -269 17 -1388 20 l-1283 4 0 -2856z m1883
1775 c358 -34 501 -195 524 -590 21 -380 -137 -652 -423 -726 -40 -11 -128
-17 -276 -21 l-218 -5 0 676 0 676 143 0 c78 0 190 -5 250 -10z"/>
<path d="M5570 7985 l0 -2856 1283 4 1282 3 140 26 c661 124 1054 486 1199
1104 112 478 70 946 -115 1280 -171 309 -440 502 -779 559 -52 9 -97 18 -99
20 -5 5 4 8 84 30 321 86 567 309 696 630 90 225 132 521 110 774 -28 313
-114 560 -266 762 -209 280 -492 429 -935 495 -103 16 -246 18 -1357 21
l-1243 4 0 -2856z m1917 1776 c182 -27 320 -169 378 -386 63 -240 -4 -528
-154 -668 -101 -93 -132 -101 -413 -105 l-238 -4 0 586 0 586 183 0 c100 0
210 -4 244 -9z m85 -2182 c115 -24 247 -120 319 -232 92 -142 130 -381 98
-614 -31 -228 -132 -390 -297 -476 -96 -50 -145 -57 -402 -57 l-230 0 0 695 0
695 230 0 c129 0 252 -5 282 -11z"/>
<path d="M10070 7986 c0 -1476 3 -2691 6 -2700 6 -15 254 -16 2710 -16 l2704
0 0 2684 c0 1476 -3 2691 -6 2700 -6 15 -254 16 -2710 16 l-2704 0 0 -2684z
m3370 1557 c0 -4 25 -185 55 -403 31 -217 76 -541 101 -720 24 -179 51 -370
59 -425 8 -55 35 -248 60 -430 68 -490 82 -585 87 -591 3 -2 28 164 57 368 28
205 78 564 111 798 33 234 80 571 105 750 24 179 55 399 68 490 l23 165 472 3
c391 2 472 0 472 -11 0 -13 -31 -162 -80 -387 -12 -52 -29 -135 -40 -185 -11
-49 -28 -130 -39 -180 -10 -49 -53 -247 -95 -440 -41 -192 -116 -539 -166
-770 -97 -449 -100 -463 -154 -715 -19 -91 -62 -291 -96 -444 -33 -154 -60
-281 -60 -283 0 -2 -260 -2 -577 -1 l-578 3 -62 295 c-34 162 -72 340 -84 395
-36 171 -59 280 -285 1350 l-219 1039 -5 -209 -5 -210 -333 0 -332 0 0 -1332
0 -1333 -450 0 -450 0 0 1333 0 1332 -327 0 -328 0 -3 378 -2 377 1550 0 c852
0 1550 -3 1550 -7z"/>
</g>
</svg>
